<svg xmlns="http://www.w3.org/2000/svg" version="1.1" xmlns:xlink="http://www.w3.org/1999/xlink" xmlns:svgjs="http://svgjs.com/svgjs" width="1440" height="560" preserveAspectRatio="none" viewBox="0 0 1440 560"><g mask="url(&quot;#SvgjsMask1184&quot;)" fill="none"><rect width="1440" height="560" x="0" y="0" fill="#0e2a47"></rect><g mask="url(&quot;#SvgjsMask1185&quot;)"><path d="M310.5 287.5L333.5 264.5L356.5 264.5L379.5 264.5L402.5 264.5L425.5 264.5M57.5 287.5L80.5 310.5M103.5 287.5L126.5 310.5L149.5 310.5L172.5 310.5L195.5 310.5M494.5 287.5L517.5 310.5L540.5 310.5L563.5 333.5M333.5 287.5L356.5 310.5L379.5 310.5M34.5 287.5L57.5 310.5M448.5 287.5L471.5 264.5L494.5 264.5M-11.5 287.5L11.5 287.5L34.5 287.5L57.5 287.5L80.5 287.5L103.5 287.5L126.5 287.5L149.5 287.5L172.5 287.5L195.5 287.5L218.5 287.5L241.5 287.5L264.5 287.5L287.5 287.5L310.5 287.5L333.5 287.5L356.5 287.5L379.5 287.5L402.5 287.5L425.5 287.5L448.5 287.5L471.5 287.5L494.5 287.5L517.5 287.5L540.5 287.5L563.5 310.5L586.5 333.5L609.5 333.5L632.5 333.5L655.5 333.5" stroke="#3a7cc3" stroke-width="3.83"></path><path d="M649.75 333.5 a5.75 5.75 0 1 0 11.5 0 a5.75 5.75 0 1 0 -11.5 0zM419.75 264.5 a5.75 5.75 0 1 0 11.5 0 a5.75 5.75 0 1 0 -11.5 0zM74.75 310.5 a5.75 5.75 0 1 0 11.5 0 a5.75 5.75 0 1 0 -11.5 0zM189.75 310.5 a5.75 5.75 0 1 0 11.5 0 a5.75 5.75 0 1 0 -11.5 0zM557.75 333.5 a5.75 5.75 0 1 0 11.5 0 a5.75 5.75 0 1 0 -11.5 0zM373.75 310.5 a5.75 5.75 0 1 0 11.5 0 a5.75 5.75 0 1 0 -11.5 0zM51.75 310.5 a5.75 5.75 0 1 0 11.5 0 a5.75 5.75 0 1 0 -11.5 0zM488.75 264.5 a5.75 5.75 0 1 0 11.5 0 a5.75 5.75 0 1 0 -11.5 0z" fill="#3a7cc3"></path><path d="M-11.5 264.5L11.5 264.5L34.5 264.5L57.5 264.5L80.5 264.5L103.5 264.5L126.5 264.5L149.5 264.5L172.5 264.5" stroke="#dd1133" stroke-width="3.83"></path><path d="M166.75 264.5 a5.75 5.75 0 1 0 11.5 0 a5.75 5.75 0 1 0 -11.5 0z" fill="#dd1133"></path><path d="M-11.5 310.5L11.5 310.5" stroke="#dd1133" stroke-width="3.83"></path><path d="M5.75 310.5 a5.75 5.75 0 1 0 11.5 0 a5.75 5.75 0 1 0 -11.5 0z" fill="#dd1133"></path><path d="M425.5 195.5L448.5 195.5L471.5 195.5L494.5 195.5M241.5 241.5L264.5 264.5L287.5 264.5L310.5 264.5M218.5 241.5L241.5 264.5M379.5 218.5L402.5 241.5M195.5 241.5L218.5 264.5M-11.5 241.5L11.5 241.5L34.5 241.5L57.5 241.5L80.5 241.5L103.5 241.5L126.5 241.5L149.5 241.5L172.5 241.5L195.5 241.5L218.5 241.5L241.5 241.5L264.5 241.5L287.5 241.5L310.5 241.5L333.5 241.5L356.5 241.5L379.5 218.5L402.5 218.5L425.5 195.5L448.5 172.5L471.5 149.5" stroke="#3a7cc3" stroke-width="3.83"></path><path d="M465.75 149.5 a5.75 5.75 0 1 0 11.5 0 a5.75 5.75 0 1 0 -11.5 0zM488.75 195.5 a5.75 5.75 0 1 0 11.5 0 a5.75 5.75 0 1 0 -11.5 0zM304.75 264.5 a5.75 5.75 0 1 0 11.5 0 a5.75 5.75 0 1 0 -11.5 0zM235.75 264.5 a5.75 5.75 0 1 0 11.5 0 a5.75 5.75 0 1 0 -11.5 0zM396.75 241.5 a5.75 5.75 0 1 0 11.5 0 a5.75 5.75 0 1 0 -11.5 0zM212.75 264.5 a5.75 5.75 0 1 0 11.5 0 a5.75 5.75 0 1 0 -11.5 0z" fill="#3a7cc3"></path><path d="M264.5 333.5L287.5 310.5L310.5 310.5M218.5 333.5L241.5 310.5L264.5 310.5M402.5 310.5L425.5 333.5L448.5 333.5L471.5 333.5L494.5 333.5L517.5 333.5M379.5 333.5L402.5 333.5M-11.5 333.5L11.5 333.5L34.5 333.5L57.5 333.5L80.5 333.5L103.5 333.5L126.5 333.5L149.5 333.5L172.5 333.5L195.5 333.5L218.5 333.5L241.5 333.5L264.5 333.5L287.5 333.5L310.5 333.5L333.5 333.5L356.5 333.5L379.5 333.5L402.5 310.5L425.5 310.5" stroke="#3a7cc3" stroke-width="3.83"></path><path d="M419.75 310.5 a5.75 5.75 0 1 0 11.5 0 a5.75 5.75 0 1 0 -11.5 0zM304.75 310.5 a5.75 5.75 0 1 0 11.5 0 a5.75 5.75 0 1 0 -11.5 0zM258.75 310.5 a5.75 5.75 0 1 0 11.5 0 a5.75 5.75 0 1 0 -11.5 0zM511.75 333.5 a5.75 5.75 0 1 0 11.5 0 a5.75 5.75 0 1 0 -11.5 0zM396.75 333.5 a5.75 5.75 0 1 0 11.5 0 a5.75 5.75 0 1 0 -11.5 0z" fill="#3a7cc3"></path><path d="M1000.5 126.5L1023.5 103.5L1046.5 103.5L1069.5 103.5L1092.5 103.5M103.5 218.5L126.5 195.5L149.5 195.5L172.5 195.5L195.5 195.5L218.5 195.5L241.5 195.5L264.5 195.5M954.5 126.5L977.5 103.5L1000.5 103.5M1023.5 126.5L1046.5 149.5L1069.5 149.5L1092.5 149.5L1115.5 149.5M747.5 126.5L770.5 103.5L793.5 103.5L816.5 103.5L839.5 103.5L862.5 103.5M517.5 126.5L540.5 149.5L563.5 172.5L586.5 172.5L609.5 172.5L632.5 172.5M931.5 126.5L954.5 103.5L977.5 80.5L1000.5 80.5L1023.5 80.5L1046.5 80.5L1069.5 80.5L1092.5 80.5L1115.5 80.5L1138.5 80.5L1161.5 80.5M333.5 218.5L356.5 195.5M862.5 126.5L885.5 149.5L908.5 149.5L931.5 149.5L954.5 149.5L977.5 149.5L1000.5 149.5L1023.5 172.5L1046.5 172.5L1069.5 172.5L1092.5 172.5L1115.5 195.5L1138.5 195.5L1161.5 218.5L1184.5 218.5M793.5 126.5L816.5 149.5L839.5 149.5L862.5 149.5L885.5 172.5L908.5 172.5M885.5 126.5L908.5 103.5L931.5 103.5L954.5 80.5L977.5 57.5L1000.5 57.5L1023.5 57.5L1046.5 57.5L1069.5 57.5L1092.5 57.5L1115.5 57.5L1138.5 57.5L1161.5 57.5L1184.5 57.5M-11.5 218.5L11.5 218.5L34.5 218.5L57.5 218.5L80.5 218.5L103.5 218.5L126.5 218.5L149.5 218.5L172.5 218.5L195.5 218.5L218.5 218.5L241.5 218.5L264.5 218.5L287.5 218.5L310.5 218.5L333.5 218.5L356.5 218.5L379.5 195.5L402.5 195.5L425.5 172.5L448.5 149.5L471.5 126.5L494.5 126.5L517.5 126.5L540.5 126.5L563.5 126.5L586.5 126.5L609.5 126.5L632.5 126.5L655.5 126.5L678.5 126.5L701.5 126.5L724.5 126.5L747.5 126.5L770.5 126.5L793.5 126.5L816.5 126.5L839.5 126.5L862.5 126.5L885.5 126.5L908.5 126.5L931.5 126.5L954.5 126.5L977.5 126.5L1000.5 126.5L1023.5 126.5L1046.5 126.5" stroke="#dd1133" stroke-width="3.83"></path><path d="M1040.75 126.5 a5.75 5.75 0 1 0 11.5 0 a5.75 5.75 0 1 0 -11.5 0zM1086.75 103.5 a5.75 5.75 0 1 0 11.5 0 a5.75 5.75 0 1 0 -11.5 0zM258.75 195.5 a5.75 5.75 0 1 0 11.5 0 a5.75 5.75 0 1 0 -11.5 0zM994.75 103.5 a5.75 5.75 0 1 0 11.5 0 a5.75 5.75 0 1 0 -11.5 0zM1109.75 149.5 a5.75 5.75 0 1 0 11.5 0 a5.75 5.75 0 1 0 -11.5 0zM856.75 103.5 a5.75 5.75 0 1 0 11.5 0 a5.75 5.75 0 1 0 -11.5 0zM626.75 172.5 a5.75 5.75 0 1 0 11.5 0 a5.75 5.75 0 1 0 -11.5 0zM1155.75 80.5 a5.75 5.75 0 1 0 11.5 0 a5.75 5.75 0 1 0 -11.5 0zM350.75 195.5 a5.75 5.75 0 1 0 11.5 0 a5.75 5.75 0 1 0 -11.5 0zM1178.75 218.5 a5.75 5.75 0 1 0 11.5 0 a5.75 5.75 0 1 0 -11.5 0zM902.75 172.5 a5.75 5.75 0 1 0 11.5 0 a5.75 5.75 0 1 0 -11.5 0zM1178.75 57.5 a5.75 5.75 0 1 0 11.5 0 a5.75 5.75 0 1 0 -11.5 0z" fill="#dd1133"></path><path d="M-11.5 356.5L11.5 356.5L34.5 356.5L57.5 356.5L80.5 356.5L103.5 356.5L126.5 356.5L149.5 356.5L172.5 356.5L195.5 356.5L218.5 356.5L241.5 356.5L264.5 356.5L287.5 356.5L310.5 356.5L333.5 356.5L356.5 356.5" stroke="#dd1133" stroke-width="3.83"></path><path d="M350.75 356.5 a5.75 5.75 0 1 0 11.5 0 a5.75 5.75 0 1 0 -11.5 0z" fill="#dd1133"></path><path d="M57.5 195.5L80.5 195.5M632.5 57.5L655.5 80.5L678.5 80.5L701.5 80.5M494.5 80.5L517.5 103.5M563.5 80.5L586.5 103.5L609.5 103.5L632.5 103.5L655.5 103.5M471.5 103.5L494.5 103.5M586.5 80.5L609.5 80.5L632.5 80.5M310.5 172.5L333.5 195.5M-11.5 195.5L11.5 195.5L34.5 195.5L57.5 195.5L80.5 172.5L103.5 172.5L126.5 172.5L149.5 172.5L172.5 172.5L195.5 172.5L218.5 172.5L241.5 172.5L264.5 172.5L287.5 172.5L310.5 172.5L333.5 172.5L356.5 172.5L379.5 172.5L402.5 172.5L425.5 149.5L448.5 126.5L471.5 103.5L494.5 80.5L517.5 80.5L540.5 80.5L563.5 80.5L586.5 80.5L609.5 57.5L632.5 57.5L655.5 57.5L678.5 57.5" stroke="#dd1133" stroke-width="3.83"></path><path d="M672.75 57.5 a5.75 5.75 0 1 0 11.5 0 a5.75 5.75 0 1 0 -11.5 0zM74.75 195.5 a5.75 5.75 0 1 0 11.5 0 a5.75 5.75 0 1 0 -11.5 0zM695.75 80.5 a5.75 5.75 0 1 0 11.5 0 a5.75 5.75 0 1 0 -11.5 0zM511.75 103.5 a5.75 5.75 0 1 0 11.5 0 a5.75 5.75 0 1 0 -11.5 0zM649.75 103.5 a5.75 5.75 0 1 0 11.5 0 a5.75 5.75 0 1 0 -11.5 0zM488.75 103.5 a5.75 5.75 0 1 0 11.5 0 a5.75 5.75 0 1 0 -11.5 0zM626.75 80.5 a5.75 5.75 0 1 0 11.5 0 a5.75 5.75 0 1 0 -11.5 0zM327.75 195.5 a5.75 5.75 0 1 0 11.5 0 a5.75 5.75 0 1 0 -11.5 0z" fill="#dd1133"></path><path d="M977.5 310.5L1000.5 287.5L1023.5 264.5L1046.5 264.5L1069.5 264.5L1092.5 264.5L1115.5 264.5L1138.5 264.5L1161.5 264.5L1184.5 264.5M586.5 356.5L609.5 379.5L632.5 379.5L655.5 379.5M1023.5 287.5L1046.5 310.5L1069.5 310.5L1092.5 310.5L1115.5 310.5L1138.5 310.5L1161.5 310.5L1184.5 310.5M931.5 310.5L954.5 287.5L977.5 264.5L1000.5 264.5L1023.5 241.5M701.5 333.5L724.5 356.5L747.5 356.5L770.5 356.5L793.5 356.5L816.5 356.5L839.5 356.5M540.5 379.5L563.5 379.5L586.5 379.5M655.5 356.5L678.5 356.5L701.5 356.5L724.5 379.5L747.5 379.5L770.5 379.5L793.5 379.5L816.5 379.5L839.5 379.5L862.5 379.5L885.5 379.5L908.5 379.5L931.5 379.5L954.5 379.5L977.5 379.5L1000.5 379.5L1023.5 379.5L1046.5 379.5M1000.5 310.5L1023.5 310.5L1046.5 333.5M816.5 310.5L839.5 333.5L862.5 333.5L885.5 333.5L908.5 333.5L931.5 333.5L954.5 333.5L977.5 333.5L1000.5 333.5L1023.5 333.5L1046.5 356.5L1069.5 356.5L1092.5 356.5L1115.5 356.5M678.5 333.5L701.5 310.5L724.5 310.5L747.5 310.5L770.5 310.5L793.5 287.5M885.5 310.5L908.5 287.5L931.5 287.5L954.5 264.5M494.5 379.5L517.5 402.5L540.5 402.5L563.5 402.5L586.5 402.5L609.5 402.5L632.5 402.5L655.5 402.5L678.5 379.5L701.5 379.5L724.5 402.5L747.5 402.5L770.5 402.5M471.5 379.5L494.5 402.5L517.5 425.5M-11.5 379.5L11.5 379.5L34.5 379.5L57.5 379.5L80.5 379.5L103.5 379.5L126.5 379.5L149.5 379.5L172.5 379.5L195.5 379.5L218.5 379.5L241.5 379.5L264.5 379.5L287.5 379.5L310.5 379.5L333.5 379.5L356.5 379.5L379.5 379.5L402.5 379.5L425.5 379.5L448.5 379.5L471.5 379.5L494.5 379.5L517.5 379.5L540.5 379.5L563.5 356.5L586.5 356.5L609.5 356.5L632.5 356.5L655.5 356.5L678.5 333.5L701.5 333.5L724.5 333.5L747.5 333.5L770.5 333.5L793.5 310.5L816.5 310.5L839.5 310.5L862.5 310.5L885.5 310.5L908.5 310.5L931.5 310.5L954.5 310.5L977.5 310.5L1000.5 310.5L1023.5 287.5L1046.5 287.5L1069.5 287.5L1092.5 287.5L1115.5 287.5L1138.5 287.5L1161.5 287.5" stroke="#3a7cc3" stroke-width="3.83"></path><path d="M1155.75 287.5 a5.75 5.75 0 1 0 11.5 0 a5.75 5.75 0 1 0 -11.5 0zM1178.75 264.5 a5.75 5.75 0 1 0 11.5 0 a5.75 5.75 0 1 0 -11.5 0zM649.75 379.5 a5.75 5.75 0 1 0 11.5 0 a5.75 5.75 0 1 0 -11.5 0zM1178.75 310.5 a5.75 5.75 0 1 0 11.5 0 a5.75 5.75 0 1 0 -11.5 0zM1017.75 241.5 a5.75 5.75 0 1 0 11.5 0 a5.75 5.75 0 1 0 -11.5 0zM833.75 356.5 a5.75 5.75 0 1 0 11.5 0 a5.75 5.75 0 1 0 -11.5 0zM580.75 379.5 a5.75 5.75 0 1 0 11.5 0 a5.75 5.75 0 1 0 -11.5 0zM1040.75 379.5 a5.75 5.75 0 1 0 11.5 0 a5.75 5.75 0 1 0 -11.5 0zM1040.75 333.5 a5.75 5.75 0 1 0 11.5 0 a5.75 5.75 0 1 0 -11.5 0zM1109.75 356.5 a5.75 5.75 0 1 0 11.5 0 a5.75 5.75 0 1 0 -11.5 0zM787.75 287.5 a5.75 5.75 0 1 0 11.5 0 a5.75 5.75 0 1 0 -11.5 0zM948.75 264.5 a5.75 5.75 0 1 0 11.5 0 a5.75 5.75 0 1 0 -11.5 0zM764.75 402.5 a5.75 5.75 0 1 0 11.5 0 a5.75 5.75 0 1 0 -11.5 0zM511.75 425.5 a5.75 5.75 0 1 0 11.5 0 a5.75 5.75 0 1 0 -11.5 0z" fill="#3a7cc3"></path><path d="M356.5 149.5L379.5 149.5L402.5 149.5M402.5 126.5L425.5 103.5L448.5 80.5L471.5 57.5M195.5 149.5L218.5 126.5L241.5 126.5L264.5 126.5L287.5 126.5L310.5 126.5L333.5 126.5L356.5 126.5M172.5 149.5L195.5 126.5L218.5 103.5L241.5 80.5L264.5 80.5M379.5 126.5L402.5 103.5L425.5 80.5L448.5 57.5M-11.5 172.5L11.5 172.5L34.5 172.5L57.5 172.5L80.5 149.5L103.5 149.5L126.5 149.5L149.5 149.5L172.5 149.5L195.5 149.5L218.5 149.5L241.5 149.5L264.5 149.5L287.5 149.5L310.5 149.5L333.5 149.5L356.5 149.5L379.5 126.5L402.5 126.5L425.5 126.5L448.5 103.5L471.5 80.5L494.5 57.5L517.5 57.5L540.5 57.5L563.5 57.5L586.5 57.5" stroke="#dd1133" stroke-width="3.83"></path><path d="M580.75 57.5 a5.75 5.75 0 1 0 11.5 0 a5.75 5.75 0 1 0 -11.5 0zM396.75 149.5 a5.75 5.75 0 1 0 11.5 0 a5.75 5.75 0 1 0 -11.5 0zM465.75 57.5 a5.75 5.75 0 1 0 11.5 0 a5.75 5.75 0 1 0 -11.5 0zM350.75 126.5 a5.75 5.75 0 1 0 11.5 0 a5.75 5.75 0 1 0 -11.5 0zM258.75 80.5 a5.75 5.75 0 1 0 11.5 0 a5.75 5.75 0 1 0 -11.5 0zM442.75 57.5 a5.75 5.75 0 1 0 11.5 0 a5.75 5.75 0 1 0 -11.5 0z" fill="#dd1133"></path><path d="M218.5 402.5L241.5 425.5L264.5 425.5L287.5 425.5L310.5 425.5L333.5 425.5L356.5 425.5L379.5 425.5L402.5 425.5M747.5 425.5L770.5 448.5L793.5 448.5M609.5 448.5L632.5 448.5L655.5 448.5M126.5 402.5L149.5 425.5L172.5 425.5L195.5 425.5M402.5 402.5L425.5 402.5L448.5 402.5L471.5 402.5M678.5 425.5L701.5 448.5L724.5 471.5L747.5 471.5L770.5 471.5L793.5 471.5L816.5 471.5M586.5 448.5L609.5 471.5L632.5 471.5M816.5 402.5L839.5 425.5L862.5 425.5L885.5 425.5L908.5 425.5L931.5 402.5L954.5 402.5L977.5 402.5L1000.5 402.5L1023.5 402.5M563.5 448.5L586.5 425.5L609.5 425.5M-11.5 402.5L11.5 402.5L34.5 402.5L57.5 402.5L80.5 402.5L103.5 402.5L126.5 402.5L149.5 402.5L172.5 402.5L195.5 402.5L218.5 402.5L241.5 402.5L264.5 402.5L287.5 402.5L310.5 402.5L333.5 402.5L356.5 402.5L379.5 402.5L402.5 402.5L425.5 425.5L448.5 448.5L471.5 448.5L494.5 448.5L517.5 448.5L540.5 448.5L563.5 448.5L586.5 448.5L609.5 448.5L632.5 425.5L655.5 425.5L678.5 425.5L701.5 425.5L724.5 425.5L747.5 425.5L770.5 425.5L793.5 402.5L816.5 402.5L839.5 402.5" stroke="#dd1133" stroke-width="3.83"></path><path d="M833.75 402.5 a5.75 5.75 0 1 0 11.5 0 a5.75 5.75 0 1 0 -11.5 0zM396.75 425.5 a5.75 5.75 0 1 0 11.5 0 a5.75 5.75 0 1 0 -11.5 0zM787.75 448.5 a5.75 5.75 0 1 0 11.5 0 a5.75 5.75 0 1 0 -11.5 0zM649.75 448.5 a5.75 5.75 0 1 0 11.5 0 a5.75 5.75 0 1 0 -11.5 0zM189.75 425.5 a5.75 5.75 0 1 0 11.5 0 a5.75 5.75 0 1 0 -11.5 0zM465.75 402.5 a5.75 5.75 0 1 0 11.5 0 a5.75 5.75 0 1 0 -11.5 0zM810.75 471.5 a5.75 5.75 0 1 0 11.5 0 a5.75 5.75 0 1 0 -11.5 0zM626.75 471.5 a5.75 5.75 0 1 0 11.5 0 a5.75 5.75 0 1 0 -11.5 0zM1017.75 402.5 a5.75 5.75 0 1 0 11.5 0 a5.75 5.75 0 1 0 -11.5 0zM603.75 425.5 a5.75 5.75 0 1 0 11.5 0 a5.75 5.75 0 1 0 -11.5 0z" fill="#dd1133"></path><path d="M57.5 126.5L80.5 103.5L103.5 103.5L126.5 103.5L149.5 103.5M11.5 149.5L34.5 149.5L57.5 149.5M34.5 126.5L57.5 103.5L80.5 80.5M-11.5 149.5L11.5 149.5L34.5 126.5L57.5 126.5L80.5 126.5L103.5 126.5L126.5 126.5L149.5 126.5" stroke="#dd1133" stroke-width="3.83"></path><path d="M143.75 126.5 a5.75 5.75 0 1 0 11.5 0 a5.75 5.75 0 1 0 -11.5 0zM143.75 103.5 a5.75 5.75 0 1 0 11.5 0 a5.75 5.75 0 1 0 -11.5 0zM51.75 149.5 a5.75 5.75 0 1 0 11.5 0 a5.75 5.75 0 1 0 -11.5 0zM74.75 80.5 a5.75 5.75 0 1 0 11.5 0 a5.75 5.75 0 1 0 -11.5 0z" fill="#dd1133"></path></g></g><defs><mask id="SvgjsMask1184"><rect width="1440" height="560" fill="#ffffff"></rect></mask><mask id="SvgjsMask1185"><rect width="1440" height="560" fill="white"></rect><path d="M652.62 333.5 a2.88 2.88 0 1 0 5.76 0 a2.88 2.88 0 1 0 -5.76 0zM422.62 264.5 a2.88 2.88 0 1 0 5.76 0 a2.88 2.88 0 1 0 -5.76 0zM77.62 310.5 a2.88 2.88 0 1 0 5.76 0 a2.88 2.88 0 1 0 -5.76 0zM192.62 310.5 a2.88 2.88 0 1 0 5.76 0 a2.88 2.88 0 1 0 -5.76 0zM560.62 333.5 a2.88 2.88 0 1 0 5.76 0 a2.88 2.88 0 1 0 -5.76 0zM376.62 310.5 a2.88 2.88 0 1 0 5.76 0 a2.88 2.88 0 1 0 -5.76 0zM54.62 310.5 a2.88 2.88 0 1 0 5.76 0 a2.88 2.88 0 1 0 -5.76 0zM491.62 264.5 a2.88 2.88 0 1 0 5.76 0 a2.88 2.88 0 1 0 -5.76 0z" fill="black"></path><path d="M169.62 264.5 a2.88 2.88 0 1 0 5.76 0 a2.88 2.88 0 1 0 -5.76 0z" fill="black"></path><path d="M8.62 310.5 a2.88 2.88 0 1 0 5.76 0 a2.88 2.88 0 1 0 -5.76 0z" fill="black"></path><path d="M468.62 149.5 a2.88 2.88 0 1 0 5.76 0 a2.88 2.88 0 1 0 -5.76 0zM491.62 195.5 a2.88 2.88 0 1 0 5.76 0 a2.88 2.88 0 1 0 -5.76 0zM307.62 264.5 a2.88 2.88 0 1 0 5.76 0 a2.88 2.88 0 1 0 -5.76 0zM238.62 264.5 a2.88 2.88 0 1 0 5.76 0 a2.88 2.88 0 1 0 -5.76 0zM399.62 241.5 a2.88 2.88 0 1 0 5.76 0 a2.88 2.88 0 1 0 -5.76 0zM215.62 264.5 a2.88 2.88 0 1 0 5.76 0 a2.88 2.88 0 1 0 -5.76 0z" fill="black"></path><path d="M422.62 310.5 a2.88 2.88 0 1 0 5.76 0 a2.88 2.88 0 1 0 -5.76 0zM307.62 310.5 a2.88 2.88 0 1 0 5.76 0 a2.88 2.88 0 1 0 -5.76 0zM261.62 310.5 a2.88 2.88 0 1 0 5.76 0 a2.88 2.88 0 1 0 -5.76 0zM514.62 333.5 a2.88 2.88 0 1 0 5.76 0 a2.88 2.88 0 1 0 -5.76 0zM399.62 333.5 a2.88 2.88 0 1 0 5.76 0 a2.88 2.88 0 1 0 -5.76 0z" fill="black"></path><path d="M1043.62 126.5 a2.88 2.88 0 1 0 5.76 0 a2.88 2.88 0 1 0 -5.76 0zM1089.62 103.5 a2.88 2.88 0 1 0 5.76 0 a2.88 2.88 0 1 0 -5.76 0zM261.62 195.5 a2.88 2.88 0 1 0 5.76 0 a2.88 2.88 0 1 0 -5.76 0zM997.62 103.5 a2.88 2.88 0 1 0 5.76 0 a2.88 2.88 0 1 0 -5.76 0zM1112.62 149.5 a2.88 2.88 0 1 0 5.76 0 a2.88 2.88 0 1 0 -5.76 0zM859.62 103.5 a2.88 2.88 0 1 0 5.76 0 a2.88 2.88 0 1 0 -5.76 0zM629.62 172.5 a2.88 2.88 0 1 0 5.76 0 a2.88 2.88 0 1 0 -5.76 0zM1158.62 80.5 a2.88 2.88 0 1 0 5.76 0 a2.88 2.88 0 1 0 -5.76 0zM353.62 195.5 a2.88 2.88 0 1 0 5.76 0 a2.88 2.88 0 1 0 -5.76 0zM1181.62 218.5 a2.88 2.88 0 1 0 5.76 0 a2.88 2.88 0 1 0 -5.76 0zM905.62 172.5 a2.88 2.88 0 1 0 5.76 0 a2.88 2.88 0 1 0 -5.76 0zM1181.62 57.5 a2.88 2.88 0 1 0 5.76 0 a2.88 2.88 0 1 0 -5.76 0z" fill="black"></path><path d="M353.62 356.5 a2.88 2.88 0 1 0 5.76 0 a2.88 2.88 0 1 0 -5.76 0z" fill="black"></path><path d="M675.62 57.5 a2.88 2.88 0 1 0 5.76 0 a2.88 2.88 0 1 0 -5.76 0zM77.62 195.5 a2.88 2.88 0 1 0 5.76 0 a2.88 2.88 0 1 0 -5.76 0zM698.62 80.5 a2.88 2.88 0 1 0 5.76 0 a2.88 2.88 0 1 0 -5.76 0zM514.62 103.5 a2.88 2.88 0 1 0 5.76 0 a2.88 2.88 0 1 0 -5.76 0zM652.62 103.5 a2.88 2.88 0 1 0 5.76 0 a2.88 2.88 0 1 0 -5.76 0zM491.62 103.5 a2.88 2.88 0 1 0 5.76 0 a2.88 2.88 0 1 0 -5.76 0zM629.62 80.5 a2.88 2.88 0 1 0 5.76 0 a2.88 2.88 0 1 0 -5.76 0zM330.62 195.5 a2.88 2.88 0 1 0 5.76 0 a2.88 2.88 0 1 0 -5.76 0z" fill="black"></path><path d="M1158.62 287.5 a2.88 2.88 0 1 0 5.76 0 a2.88 2.88 0 1 0 -5.76 0zM1181.62 264.5 a2.88 2.88 0 1 0 5.76 0 a2.88 2.88 0 1 0 -5.76 0zM652.62 379.5 a2.88 2.88 0 1 0 5.76 0 a2.88 2.88 0 1 0 -5.76 0zM1181.62 310.5 a2.88 2.88 0 1 0 5.76 0 a2.88 2.88 0 1 0 -5.76 0zM1020.62 241.5 a2.88 2.88 0 1 0 5.76 0 a2.88 2.88 0 1 0 -5.76 0zM836.62 356.5 a2.88 2.88 0 1 0 5.76 0 a2.88 2.88 0 1 0 -5.76 0zM583.62 379.5 a2.88 2.88 0 1 0 5.76 0 a2.88 2.88 0 1 0 -5.76 0zM1043.62 379.5 a2.88 2.88 0 1 0 5.76 0 a2.88 2.88 0 1 0 -5.76 0zM1043.62 333.5 a2.88 2.88 0 1 0 5.76 0 a2.88 2.88 0 1 0 -5.76 0zM1112.62 356.5 a2.88 2.88 0 1 0 5.76 0 a2.88 2.88 0 1 0 -5.76 0zM790.62 287.5 a2.88 2.88 0 1 0 5.76 0 a2.88 2.88 0 1 0 -5.76 0zM951.62 264.5 a2.88 2.88 0 1 0 5.76 0 a2.88 2.88 0 1 0 -5.76 0zM767.62 402.5 a2.88 2.88 0 1 0 5.76 0 a2.88 2.88 0 1 0 -5.76 0zM514.62 425.5 a2.88 2.88 0 1 0 5.76 0 a2.88 2.88 0 1 0 -5.76 0z" fill="black"></path><path d="M583.62 57.5 a2.88 2.88 0 1 0 5.76 0 a2.88 2.88 0 1 0 -5.76 0zM399.62 149.5 a2.88 2.88 0 1 0 5.76 0 a2.88 2.88 0 1 0 -5.76 0zM468.62 57.5 a2.88 2.88 0 1 0 5.76 0 a2.88 2.88 0 1 0 -5.76 0zM353.62 126.5 a2.88 2.88 0 1 0 5.76 0 a2.88 2.88 0 1 0 -5.76 0zM261.62 80.5 a2.88 2.88 0 1 0 5.76 0 a2.88 2.88 0 1 0 -5.76 0zM445.62 57.5 a2.88 2.88 0 1 0 5.76 0 a2.88 2.88 0 1 0 -5.76 0z" fill="black"></path><path d="M836.62 402.5 a2.88 2.88 0 1 0 5.76 0 a2.88 2.88 0 1 0 -5.76 0zM399.62 425.5 a2.88 2.88 0 1 0 5.76 0 a2.88 2.88 0 1 0 -5.76 0zM790.62 448.5 a2.88 2.88 0 1 0 5.76 0 a2.88 2.88 0 1 0 -5.76 0zM652.62 448.5 a2.88 2.88 0 1 0 5.76 0 a2.88 2.88 0 1 0 -5.76 0zM192.62 425.5 a2.88 2.88 0 1 0 5.76 0 a2.88 2.88 0 1 0 -5.76 0zM468.62 402.5 a2.88 2.88 0 1 0 5.76 0 a2.88 2.88 0 1 0 -5.76 0zM813.62 471.5 a2.88 2.88 0 1 0 5.76 0 a2.88 2.88 0 1 0 -5.76 0zM629.62 471.5 a2.88 2.88 0 1 0 5.76 0 a2.88 2.88 0 1 0 -5.76 0zM1020.62 402.5 a2.88 2.88 0 1 0 5.76 0 a2.88 2.88 0 1 0 -5.76 0zM606.62 425.5 a2.88 2.88 0 1 0 5.76 0 a2.88 2.88 0 1 0 -5.76 0z" fill="black"></path><path d="M146.62 126.5 a2.88 2.88 0 1 0 5.76 0 a2.88 2.88 0 1 0 -5.76 0zM146.62 103.5 a2.88 2.88 0 1 0 5.76 0 a2.88 2.88 0 1 0 -5.76 0zM54.62 149.5 a2.88 2.88 0 1 0 5.76 0 a2.88 2.88 0 1 0 -5.76 0zM77.62 80.5 a2.88 2.88 0 1 0 5.76 0 a2.88 2.88 0 1 0 -5.76 0z" fill="black"></path></mask></defs></svg>